# xmcd
#
# Track frame offsets:
#	150
#	18497
#	35059
#	53262
#	69420
#	99042
#
# Disc length: 1898 seconds
#
# Revision: 1
# Processed by: cddbd v1.5.2PL0 Copyright (c) Steve Scherf et al.
# Submitted via: audiograbber 1.83.01
#
DISCID=3d076806
DTITLE=Fler - Warum Bist du so? - EP
DYEAR=2008
DGENRE=Rap
TTITLE0=Warum bist du so?
TTITLE1=Warum bist du so? (Djorkaeff Remix)
TTITLE2=Kopf durch die Wand
TTITLE3=Meine Gegend
TTITLE4=Warum bist du so? (Instrumental)
TTITLE5=Video
EXTD=
EXTT0=
EXTT1=
EXTT2=
EXTT3=
EXTT4=
EXTT5=
PLAYORDER=
